<svg xmlns="http://www.w3.org/2000/svg" viewBox="0 0 900 540" preserveAspectRatio="xMidYMid slice">
  <defs>
    <linearGradient id="bg" x1="0" y1="0" x2="1" y2="1">
      <stop offset="0" stop-color="#2c132e"/>
      <stop offset=".5" stop-color="#6b153b"/>
      <stop offset="1" stop-color="#17111f"/>
    </linearGradient>
    <pattern id="cards" width="180" height="120" patternUnits="userSpaceOnUse" patternTransform="rotate(-12)">
      <rect x="20" y="18" width="52" height="72" rx="9" fill="#fff" opacity=".11"/>
      <circle cx="46" cy="54" r="18" fill="none" stroke="#111827" stroke-opacity=".28" stroke-width="7"/>
      <rect x="104" y="24" width="52" height="72" rx="9" fill="#fff" opacity=".08"/>
      <circle cx="130" cy="60" r="18" fill="none" stroke="#111827" stroke-opacity=".25" stroke-width="7"/>
    </pattern>
    <radialGradient id="flare" cx="72%" cy="35%" r="46%">
      <stop offset="0" stop-color="#ffb4d6" stop-opacity=".55"/>
      <stop offset=".68" stop-color="#7c2d12" stop-opacity=".16"/>
      <stop offset="1" stop-color="#000" stop-opacity="0"/>
    </radialGradient>
  </defs>
  <rect width="900" height="540" fill="url(#bg)"/>
  <rect width="900" height="540" fill="url(#cards)" opacity=".9"/>
  <circle cx="660" cy="190" r="210" fill="url(#flare)"/>
  <path d="M0 410c95-44 193-48 292-12 105 38 204 27 306-30 108-60 213-56 302-25v197H0z" fill="#120c18" opacity=".48"/>
  <path d="M65 88h230v46H65zm420 330h265v42H485z" fill="#ffffff" opacity=".08"/>
</svg>
